<?xml version="1.0" standalone="no"?>
<!DOCTYPE svg PUBLIC "-//W3C//DTD SVG 20010904//EN"
 "http://www.w3.org/TR/2001/REC-SVG-20010904/DTD/svg10.dtd">
<svg version="1.0" xmlns="http://www.w3.org/2000/svg"
 width="965.000000pt" height="953.000000pt" viewBox="0 0 965.000000 953.000000"
 preserveAspectRatio="xMidYMid meet">

<g transform="translate(0.000000,953.000000) scale(0.100000,-0.100000)"
fill="#000000" stroke="none">
<path d="M4780 9257 c0 -4 37 -18 83 -32 68 -20 100 -24 177 -22 52 1 120 -2
152 -7 31 -5 74 -5 95 -1 l38 8 -40 8 c-22 4 -81 8 -132 8 -51 1 -118 8 -150
16 -61 17 -223 32 -223 22z"/>
<path d="M3995 9200 c-372 -7 -399 -12 -480 -81 -16 -13 -46 -18 -140 -21
-139 -5 -225 -30 -415 -119 -112 -53 -138 -71 -60 -44 23 8 69 15 102 15 53 0
59 -2 48 -15 -15 -18 -16 -18 44 0 27 8 54 15 60 15 25 0 -86 -56 -169 -84
-75 -26 -92 -36 -108 -63 -25 -43 -4 -45 47 -4 63 51 243 100 260 72 12 -19
-93 -70 -216 -104 -150 -42 -438 -161 -512 -211 -28 -20 -76 -46 -106 -57 -30
-11 -68 -31 -85 -43 -50 -38 -118 -74 -154 -81 -19 -4 -46 -21 -63 -40 -16
-19 -44 -39 -63 -45 -21 -7 -42 -25 -55 -45 -23 -37 -97 -105 -114 -105 -5 0
-17 -7 -26 -15 -10 -9 -46 -18 -83 -22 -57 -5 -69 -10 -84 -32 -10 -14 -16
-30 -15 -35 4 -12 -106 -134 -128 -141 -18 -6 -120 -118 -169 -187 -13 -19
-60 -63 -104 -98 -89 -73 -114 -106 -181 -237 -27 -51 -69 -115 -94 -142 -57
-60 -155 -110 -183 -93 -14 9 -18 7 -24 -16 -3 -15 -33 -69 -64 -122 -80 -132
-91 -154 -91 -192 0 -18 -13 -61 -29 -95 -28 -58 -28 -62 -11 -68 10 -3 20
-16 24 -28 5 -19 12 -13 55 49 28 39 68 83 90 99 23 15 41 31 41 35 0 4 23 33
50 64 28 32 59 75 70 97 13 25 25 36 34 33 8 -3 19 3 26 15 6 13 21 21 35 21
21 0 25 -5 25 -32 0 -30 0 -31 20 -13 11 10 20 30 20 45 0 37 56 137 88 157
36 23 104 82 122 107 8 11 14 39 15 61 0 36 3 40 28 43 17 2 36 15 50 34 23
32 97 76 97 58 0 -6 -36 -52 -81 -102 -347 -393 -639 -891 -830 -1413 -38
-105 -51 -131 -68 -133 -28 -5 -73 32 -87 71 -14 39 -6 162 12 199 29 56 6
108 -47 108 -38 0 -95 -19 -120 -39 -19 -16 -22 -27 -21 -79 2 -55 -3 -69 -48
-155 -28 -53 -50 -106 -50 -119 0 -13 -7 -36 -15 -52 -12 -23 -15 -75 -15
-272 0 -237 1 -244 22 -264 12 -11 26 -20 32 -20 6 0 39 -19 73 -42 l63 -43 0
-52 c0 -57 9 -68 53 -65 l29 2 -6 -52 c-13 -102 -24 -397 -20 -524 3 -116 2
-124 -9 -84 -11 40 -15 45 -44 48 -29 3 -33 0 -33 -21 0 -13 -9 -32 -20 -42
-22 -19 -27 -65 -8 -65 6 0 27 -12 46 -26 30 -23 32 -28 18 -36 -10 -5 -24 -7
-32 -4 -21 8 -18 -49 6 -120 15 -44 19 -72 15 -109 -4 -27 -2 -62 4 -77 9 -25
8 -28 -9 -28 -11 0 -20 6 -20 14 0 8 -13 17 -29 21 -28 6 -29 8 -34 88 -3 45
-13 130 -22 189 -10 66 -15 153 -13 230 3 114 7 123 23 46 5 -29 31 -65 40
-56 9 9 -33 185 -57 237 -18 37 -20 57 -16 148 3 57 1 106 -3 109 -5 3 -21 -2
-37 -10 -22 -11 -32 -27 -41 -61 -15 -60 -17 -477 -2 -580 6 -44 16 -150 22
-235 12 -189 21 -267 48 -390 42 -199 74 -316 96 -355 13 -22 44 -114 70 -205
26 -91 65 -199 85 -240 21 -41 47 -105 58 -141 11 -37 32 -88 45 -115 14 -27
42 -84 62 -126 20 -44 43 -78 51 -78 10 0 14 -12 14 -40 0 -28 14 -68 45 -131
38 -75 65 -110 162 -212 65 -67 125 -128 134 -135 10 -7 25 -38 34 -70 21 -72
56 -119 98 -130 28 -7 32 -13 35 -48 4 -50 26 -74 67 -74 23 0 43 -9 65 -30
38 -35 40 -36 33 -11 -3 10 0 22 5 25 17 10 41 -22 47 -62 10 -60 35 -120 53
-127 9 -3 18 -1 20 4 8 24 56 8 120 -38 82 -59 110 -74 186 -96 52 -14 72 -28
155 -108 53 -51 108 -109 123 -129 15 -21 47 -50 70 -65 24 -15 46 -33 50 -39
4 -6 21 -17 39 -24 17 -7 43 -26 59 -42 16 -15 38 -28 50 -28 12 0 33 -9 47
-20 14 -11 33 -20 42 -20 9 0 38 -11 65 -25 27 -14 61 -25 76 -25 16 0 43 -14
67 -35 24 -21 80 -49 142 -72 75 -28 105 -45 114 -62 20 -40 59 -61 133 -72
38 -5 96 -18 129 -28 59 -19 143 -40 260 -68 36 -8 81 -11 113 -7 47 5 52 4
52 -15 0 -30 51 -41 180 -40 63 0 128 -4 143 -10 16 -6 58 -11 95 -11 37 0 94
-5 127 -10 33 -6 94 -15 135 -20 41 -5 100 -16 130 -25 45 -12 113 -14 400
-12 245 2 351 6 367 15 14 8 75 12 180 12 139 0 163 2 196 20 30 16 56 20 142
20 l105 0 0 -29 0 -28 -107 -7 c-119 -7 -174 -15 -308 -42 -49 -10 -119 -19
-155 -20 -36 -1 -94 -5 -130 -9 -36 -4 -209 -8 -385 -9 -176 -2 -337 -6 -358
-11 -34 -6 -39 -5 -44 14 -4 18 -13 21 -54 21 -26 0 -74 7 -106 15 -36 10
-104 15 -184 15 -96 0 -138 4 -180 19 -30 10 -99 26 -154 35 -55 10 -179 42
-275 72 -170 53 -178 54 -290 54 l-115 0 110 -39 c61 -21 146 -52 190 -68 110
-42 289 -83 357 -83 37 0 81 -9 123 -25 65 -24 292 -70 435 -87 106 -12 444
-30 580 -30 181 0 425 16 441 29 13 10 110 22 187 23 21 0 32 5 32 15 0 20 47
30 75 15 16 -9 28 -9 42 -1 11 5 37 7 57 4 29 -5 51 1 97 23 50 23 63 26 79
16 26 -16 54 -15 120 4 30 8 124 21 207 28 147 13 155 15 235 55 46 22 123 52
171 66 84 24 172 65 302 140 33 19 72 35 87 35 14 0 33 3 42 6 17 7 22 30 6
36 -5 2 -1 13 8 26 13 17 31 24 72 28 65 7 94 24 115 63 9 19 28 34 52 41 21
7 54 27 73 45 63 57 384 282 415 289 18 5 58 36 100 80 49 49 98 87 160 121
49 28 110 72 137 98 52 52 100 77 148 77 21 0 41 9 61 29 16 16 29 24 29 18 0
-9 27 -11 99 -7 141 7 154 22 165 194 8 108 31 166 80 198 51 33 116 168 151
318 10 41 21 79 26 84 5 6 9 20 9 33 0 12 14 39 32 58 32 37 43 95 20 103 -21
7 -13 40 12 46 12 3 34 23 48 43 22 32 27 53 31 138 5 93 10 111 66 253 34 84
79 212 100 285 22 72 45 133 50 135 6 2 11 24 11 50 0 27 6 52 15 62 9 10 22
53 30 96 93 515 98 549 98 674 -1 74 -7 158 -17 205 -9 44 -16 94 -16 110 0
17 -8 46 -18 65 -17 31 -20 70 -25 323 -5 227 -10 293 -22 316 -14 28 -105
379 -105 407 0 8 7 14 15 14 8 0 17 11 21 25 10 40 -5 96 -42 157 -26 43 -34
67 -34 104 0 122 -55 385 -99 472 -10 20 -24 59 -30 87 -19 76 -77 165 -112
172 -16 3 -29 11 -29 18 0 8 -5 15 -11 17 -5 2 -11 35 -13 74 -2 55 -7 77 -23
98 -12 15 -29 51 -38 79 -10 29 -36 77 -60 107 -23 31 -63 102 -88 159 -25 56
-68 132 -95 169 -50 67 -96 156 -106 202 -3 14 -15 31 -27 38 -15 10 -19 10
-14 1 5 -7 1 -17 -8 -24 -14 -10 -15 -18 -6 -51 6 -21 15 -43 20 -48 20 -21 7
-22 -36 -2 -41 20 -44 23 -45 62 0 53 -24 83 -111 140 -37 25 -78 61 -90 80
-11 19 -37 43 -58 53 -40 21 -71 52 -151 153 -59 75 -113 124 -239 215 -50 36
-111 93 -147 135 -51 62 -68 76 -114 91 -68 23 -172 96 -200 141 -23 38 -69
70 -115 82 -16 4 -43 18 -59 31 -31 26 -86 56 -126 68 -50 16 -1 -22 104 -80
62 -34 135 -84 182 -126 43 -39 113 -95 156 -125 43 -30 78 -61 78 -69 0 -19
3 -20 -99 11 -72 22 -425 191 -464 222 -12 9 -137 39 -266 63 -49 9 -74 20
-102 46 -20 18 -43 33 -51 33 -9 0 -40 11 -71 25 -30 13 -84 31 -119 40 -35 9
-125 36 -200 61 -75 24 -150 44 -167 44 -20 0 -35 7 -43 20 -11 17 -24 20 -82
20 -58 0 -74 4 -93 22 -22 21 -24 21 -58 5 -46 -22 -56 -21 -99 4 -28 16 -39
18 -56 9 -17 -9 -32 -8 -68 4 -126 41 -142 45 -172 36 -17 -5 -44 -5 -62 1
-18 5 -58 9 -89 9 -41 0 -60 5 -72 18 -22 24 -21 39 2 52 35 18 67 12 79 -15
7 -15 20 -25 32 -25 17 0 19 3 10 19 -26 49 -81 62 -150 37 -27 -10 -34 -18
-33 -35 3 -20 -1 -21 -78 -21 -61 0 -89 5 -121 21 -72 37 -130 49 -238 50 -97
1 -103 2 -75 14 17 8 50 17 75 20 70 10 262 45 290 52 18 5 3 9 -50 14 -85 7
-109 7 -565 -1z m4305 -1844 c0 -17 -48 35 -53 57 -5 17 0 15 24 -13 16 -19
29 -39 29 -44z m-3550 -791 c36 0 212 4 392 9 305 8 329 8 354 -9 l27 -17 -6
-312 c-6 -279 -15 -489 -59 -1256 -17 -302 -15 -1164 6 -1900 21 -748 21
-1159 2 -1185 -26 -35 -163 -46 -682 -52 -648 -7 -807 7 -844 76 -8 17 -6 116
10 414 27 521 57 1212 71 1637 11 360 8 650 -17 1365 -8 231 -17 597 -21 812
-6 378 -5 394 13 414 19 22 19 22 354 13 184 -5 364 -9 400 -9z"/>
<path d="M5390 9170 c21 -21 45 -26 54 -11 3 5 -8 14 -26 20 -44 16 -51 14
-28 -9z"/>
<path d="M5819 9051 c10 -10 20 -24 23 -31 5 -15 58 -6 58 9 0 5 -21 16 -47
25 -58 20 -57 20 -34 -3z"/>
<path d="M5094 9039 c-3 -6 0 -15 7 -20 21 -13 27 -11 39 11 9 17 8 20 -14 20
-14 0 -28 -5 -32 -11z"/>
<path d="M6124 8932 c33 -36 58 -44 106 -33 l35 7 -30 16 c-16 9 -46 19 -65
23 -19 3 -44 9 -55 12 -17 4 -15 0 9 -25z"/>
<path d="M2710 8870 c-8 -5 -40 -15 -70 -21 -67 -14 -179 -65 -238 -108 -62
-46 -45 -50 25 -5 72 46 171 91 220 100 38 7 93 30 93 39 0 8 -14 5 -30 -5z"/>
<path d="M2059 8543 c-13 -16 -12 -17 4 -4 9 7 17 15 17 17 0 8 -8 3 -21 -13z"/>
<path d="M1901 8439 c-26 -18 -41 -36 -37 -44 3 -9 -7 -18 -30 -25 -39 -13
-89 -52 -105 -82 -10 -18 -9 -19 20 -4 16 9 41 16 54 16 27 0 77 41 77 64 0 8
16 35 35 60 19 25 33 46 31 46 -1 0 -22 -14 -45 -31z"/>
<path d="M1632 8203 c-19 -9 -36 -22 -39 -30 -3 -7 -16 -13 -29 -13 -15 0 -41
-16 -65 -38 -33 -31 -40 -43 -37 -68 l3 -31 105 98 c57 55 102 99 100 99 -3 0
-20 -8 -38 -17z"/>
<path d="M1523 8035 c-53 -51 -55 -54 -18 -31 57 36 95 66 95 77 0 20 -21 7
-77 -46z"/>
<path d="M1358 7936 c-29 -29 -64 -57 -78 -61 -44 -14 -66 -34 -119 -109 -33
-46 -66 -81 -89 -92 -50 -26 -68 -44 -76 -78 -4 -17 -20 -45 -36 -63 -16 -18
-35 -51 -41 -73 -7 -23 -29 -58 -49 -78 -21 -20 -58 -69 -83 -109 -39 -60 -44
-74 -33 -88 11 -16 18 -10 59 48 26 36 47 74 47 84 0 32 37 80 87 114 26 18
80 67 119 109 40 41 90 88 112 104 22 15 52 44 65 65 14 20 42 58 63 82 60 70
108 143 105 157 -1 8 3 20 10 28 8 10 8 14 0 14 -6 0 -34 -24 -63 -54z"/>
<path d="M1080 7518 c-12 -22 -12 -22 6 -6 10 10 15 20 12 24 -4 3 -12 -5 -18
-18z"/>
<path d="M937 7364 c-27 -15 -29 -34 -2 -34 13 0 41 38 33 45 -2 2 -16 -3 -31
-11z"/>
<path d="M756 6748 c-28 -63 -39 -98 -32 -98 9 0 85 134 80 142 -12 19 -26 5
-48 -44z"/>
<path d="M9427 4722 c-18 -20 -24 -126 -8 -150 11 -18 21 18 21 79 0 29 6 51
15 59 14 12 12 30 -4 30 -4 0 -15 -8 -24 -18z"/>
<path d="M9488 4674 c-5 -4 -8 -16 -8 -28 0 -14 3 -17 11 -9 6 6 9 19 7 28 -1
9 -6 13 -10 9z"/>
<path d="M9506 4525 c-4 -14 -11 -25 -16 -25 -6 0 -10 -9 -10 -19 0 -11 -3
-21 -7 -23 -11 -4 -53 -92 -53 -110 0 -8 3 -18 7 -22 4 -4 6 -38 5 -74 -3 -50
-10 -76 -28 -104 -16 -26 -24 -52 -24 -83 0 -61 -24 -118 -47 -113 -31 6 -44
48 -33 114 6 32 9 77 9 99 -1 39 -2 39 -9 -11 -4 -28 -14 -61 -21 -75 -29 -50
-36 -92 -21 -116 12 -20 12 -24 -1 -29 -9 -3 -21 -3 -27 1 -6 4 -10 -7 -10
-29 0 -25 4 -36 15 -36 17 0 19 -30 5 -79 -5 -19 -15 -93 -21 -165 -10 -117
-16 -140 -51 -221 -62 -141 -109 -284 -118 -356 -6 -51 -15 -78 -41 -115 -18
-26 -33 -59 -34 -73 -3 -67 -7 -81 -40 -135 -37 -62 -43 -86 -22 -86 15 0 57
36 57 49 0 14 82 23 91 10 4 -6 4 -38 2 -70 -5 -51 -3 -59 11 -59 10 0 23 14
31 34 10 24 22 35 43 39 25 5 37 20 72 84 49 92 90 189 90 215 0 10 8 35 18
56 10 20 17 45 14 55 -2 10 15 48 37 85 53 88 107 274 117 402 7 87 12 104 28
90 15 -12 26 13 42 89 l6 35 -25 -17 c-15 -9 -29 -17 -31 -17 -14 0 10 67 29
85 23 20 26 33 45 180 10 79 19 114 32 132 5 6 11 39 13 72 4 58 3 61 -31 90
-19 17 -41 31 -49 31 -8 0 -15 9 -15 20 0 11 6 20 14 20 8 0 17 4 20 9 8 12
-13 72 -32 94 -12 14 -13 22 -3 43 6 15 10 27 9 28 -2 1 -10 7 -19 14 -14 11
-18 9 -23 -13z"/>
<path d="M1180 1452 c0 -5 16 -23 35 -42 l35 -34 -12 32 c-11 27 -58 63 -58
44z"/>
<path d="M1512 1239 c2 -7 10 -15 17 -17 8 -3 12 1 9 9 -2 7 -10 15 -17 17 -8
3 -12 -1 -9 -9z"/>
</g>
</svg>
